<svg  version="1.0" xmlns="http://www.w3.org/2000/svg"  width="900.000000pt" height="168.000000pt" viewBox="0 0 900.000000 168.000000"  preserveAspectRatio="xMidYMid meet">  <g transform="translate(0.000000,168.000000) scale(0.100000,-0.100000)" fill="#132e4b" stroke="none"> <path d="M1480 1665 c0 -8 -1 -15 -2 -15 -2 0 -43 -3 -93 -7 -49 -3 -98 -9 -107 -14 -9 -5 -45 -9 -80 -9 -35 0 -81 -5 -103 -11 -22 -6 -80 -15 -129 -19 -49 -5 -94 -14 -99 -19 -6 -6 -36 -11 -66 -11 -60 0 -96 -17 -137 -66 -20 -22 -24 -38 -24 -88 1 -56 4 -64 34 -95 19 -18 45 -39 58 -45 18 -9 24 -22 28 -59 3 -26 11 -52 18 -59 7 -7 12 -19 12 -27 0 -21 78 -111 95 -111 18 0 35 -23 27 -37 -4 -6 -24 -14 -45 -18 -20 -4 -40 -11 -43 -16 -3 -5 -23 -9 -45 -9 -34 0 -39 3 -39 23 0 26 -67 97 -92 97 -9 0 -18 7 -22 15 -3 8 -14 15 -24 15 -11 0 -25 7 -32 15 -7 8 -19 15 -26 15 -8 0 -14 4 -14 9 0 5 -9 12 -20 16 -11 3 -28 25 -38 48 -16 36 -16 46 -5 67 7 14 13 35 13 46 0 12 7 27 16 35 10 8 14 22 10 40 -3 19 0 29 10 33 18 7 15 57 -3 64 -9 2 -13 -7 -13 -27 0 -18 -9 -40 -20 -51 -11 -11 -20 -27 -20 -36 0 -8 -7 -22 -15 -30 -8 -9 -15 -30 -15 -48 0 -17 -5 -37 -12 -44 -9 -9 -9 -15 0 -24 7 -7 12 -22 12 -34 0 -33 51 -83 117 -113 11 -5 24 -15 28 -20 3 -6 14 -11 25 -11 10 0 20 -7 24 -15 3 -8 12 -15 20 -15 22 0 98 -80 92 -96 -3 -8 -11 -14 -19 -14 -13 0 -178 -82 -200 -100 -7 -5 -25 -21 -42 -34 -16 -13 -38 -40 -49 -59 -18 -34 -18 -35 3 -56 12 -12 28 -21 36 -21 27 0 33 -34 39 -240 7 -212 1 -272 -29 -294 -10 -7 -16 -22 -13 -37 3 -21 8 -24 56 -27 28 -2 52 -7 52 -13 0 -5 61 -9 146 -9 94 0 143 4 139 10 -4 6 -61 10 -137 10 -113 0 -138 3 -175 21 l-44 21 27 24 c25 24 30 25 182 24 112 -1 171 3 205 13 30 10 68 13 105 10 43 -4 67 -1 90 11 18 9 55 16 90 16 41 0 63 5 72 15 8 9 30 15 59 15 35 0 51 5 64 21 13 15 28 20 52 17 25 -2 39 3 48 16 11 15 22 18 50 13 30 -5 39 -2 48 15 9 16 17 19 44 14 26 -5 36 -3 43 10 9 15 14 16 56 4 26 -7 49 -16 51 -20 7 -11 -40 -40 -78 -47 -17 -3 -41 -12 -52 -20 -11 -7 -29 -13 -40 -13 -11 0 -29 -7 -39 -15 -11 -8 -34 -15 -50 -15 -17 0 -40 -7 -50 -15 -11 -8 -32 -15 -47 -15 -15 0 -40 -7 -55 -15 -16 -8 -43 -15 -60 -15 -17 0 -48 -7 -67 -15 -20 -8 -58 -15 -85 -15 -27 0 -57 -6 -68 -15 -12 -9 -44 -14 -90 -15 -82 0 -134 -8 -134 -21 0 -12 217 -12 224 0 3 4 40 11 82 14 42 3 81 10 87 16 6 6 27 11 47 11 19 0 48 7 64 15 15 8 40 15 55 15 14 0 39 7 55 15 15 8 38 15 50 15 12 0 31 7 42 15 10 8 28 15 39 15 11 0 33 7 49 15 15 8 36 15 45 15 10 0 26 7 37 15 10 8 28 15 40 15 21 0 64 38 64 56 -1 12 -39 39 -68 48 l-24 8 5 215 c6 240 6 241 75 250 48 6 70 40 50 73 -7 11 -18 20 -24 20 -7 0 -55 23 -108 50 -53 28 -105 50 -116 50 -11 0 -20 4 -20 10 0 5 -12 13 -27 16 -16 4 -37 13 -48 20 -11 8 -27 14 -36 14 -23 0 -32 29 -17 49 7 8 18 22 23 29 6 7 16 20 24 28 18 20 34 86 35 151 1 47 4 53 36 75 46 30 62 46 77 76 15 29 17 88 3 97 -5 3 -10 14 -10 24 0 22 -50 71 -73 71 -9 0 -17 7 -17 15 0 12 -13 15 -55 15 -42 0 -55 -3 -55 -15z m110 -54 c17 -10 39 -35 49 -55 18 -35 18 -39 3 -75 -10 -24 -29 -45 -47 -54 -44 -22 -145 -34 -179 -22 -22 7 -30 6 -39 -6 -8 -10 -36 -18 -81 -22 -37 -4 -73 -10 -80 -15 -17 -14 -148 -21 -170 -10 -14 8 -25 5 -45 -9 -24 -19 -124 -34 -228 -36 -53 -1 -83 35 -83 98 0 74 30 100 130 108 40 3 78 11 84 17 20 20 86 9 86 -15 0 -7 7 -18 15 -25 9 -7 15 -20 14 -29 -4 -26 13 -91 22 -91 11 0 16 12 23 65 5 37 2 42 -29 65 -18 14 -31 28 -27 31 16 15 125 39 179 39 32 1 75 7 97 15 30 10 43 11 57 2 15 -9 25 -8 48 6 16 9 45 17 64 17 20 0 39 5 42 10 10 16 62 11 95 -9z m-50 -272 c0 -38 -36 -159 -55 -184 -39 -52 -72 -83 -90 -86 -33 -7 -29 -29 5 -29 31 0 134 -43 145 -61 4 -5 17 -9 31 -9 13 0 24 -4 24 -9 0 -5 10 -12 23 -16 12 -3 31 -10 42 -15 91 -40 115 -50 123 -50 14 0 36 -29 29 -37 -7 -6 -24 -10 -152 -33 -33 -6 -68 -15 -78 -21 -9 -5 -39 -12 -65 -15 -26 -4 -66 -12 -90 -20 -23 -8 -59 -14 -78 -14 -19 0 -44 -5 -55 -11 -11 -5 -61 -14 -112 -20 -51 -5 -123 -13 -162 -18 -38 -6 -118 -10 -177 -9 l-108 0 0 49 c0 31 5 51 14 56 8 5 16 27 18 53 3 39 6 45 28 48 14 2 30 8 35 12 6 5 27 11 48 15 20 4 37 11 37 15 0 5 18 11 40 15 22 4 43 11 46 16 6 10 -34 48 -52 49 -19 0 -105 92 -124 134 -33 71 -31 126 4 126 24 0 36 -16 36 -51 0 -10 5 -19 11 -19 6 0 8 7 5 16 -12 32 3 54 37 54 18 0 48 5 67 10 19 6 84 15 144 20 60 5 114 14 120 20 5 5 31 10 56 10 25 0 59 4 77 9 38 11 47 2 57 -51 7 -37 30 -57 40 -33 3 8 2 30 -1 49 -7 45 10 70 38 55 10 -5 19 -14 19 -20z m-801 -504 c2 -10 -4 -24 -12 -30 -10 -7 -17 -31 -19 -66 l-3 -54 -104 -3 c-138 -4 -147 0 -97 44 22 19 47 34 57 34 10 0 24 7 33 15 8 8 38 21 66 28 28 7 48 16 44 20 -10 10 5 39 19 35 6 -3 14 -13 16 -23z m987 -165 c-2 -47 -6 -92 -10 -98 -4 -7 -22 -12 -39 -12 -18 0 -41 -7 -51 -15 -11 -8 -36 -15 -55 -15 -20 -1 -47 -7 -61 -15 -14 -8 -43 -15 -65 -15 -22 0 -51 -7 -65 -15 -14 -8 -51 -14 -83 -15 -32 0 -68 -5 -80 -12 -12 -6 -69 -15 -127 -19 -58 -4 -148 -12 -199 -19 -52 -6 -150 -10 -218 -8 -133 3 -146 8 -141 58 3 25 5 25 133 37 72 6 131 12 133 12 9 3 -1 41 -13 51 -8 7 -15 21 -15 31 0 10 -8 23 -17 28 -10 6 -16 11 -13 11 24 5 314 9 321 4 6 -3 3 -11 -7 -18 -10 -8 -17 -28 -18 -51 l-1 -38 73 -3 c57 -2 76 1 89 14 12 13 34 17 84 17 50 0 72 4 87 18 15 13 29 16 59 11 29 -4 44 -2 56 10 10 10 33 16 66 16 50 0 76 15 47 26 -9 3 -25 21 -37 40 -36 58 -62 45 -71 -36 -2 -18 -10 -26 -29 -28 -20 -2 -29 4 -44 33 -22 39 -40 45 -50 15 -3 -11 -11 -20 -16 -20 -5 0 -9 -13 -9 -30 0 -26 -4 -30 -28 -30 -21 0 -30 7 -41 31 -7 17 -20 33 -27 36 -22 8 -55 -38 -49 -69 3 -20 0 -28 -9 -28 -8 0 -21 -3 -30 -6 -10 -4 -18 1 -23 12 -4 11 -13 25 -20 32 -7 7 -13 24 -13 36 0 19 8 24 50 34 27 6 55 9 62 7 7 -3 36 0 63 5 28 6 82 17 120 24 168 32 192 38 225 50 45 17 62 11 54 -20 -4 -15 -2 -24 5 -24 6 0 11 10 11 23 0 28 21 52 31 36 4 -7 6 -51 5 -99z m-1066 -34 c43 -1 45 -2 48 -32 2 -22 -4 -39 -20 -56 -21 -22 -29 -24 -83 -20 l-61 4 -10 54 c-5 30 -8 57 -4 60 3 3 23 2 45 -2 22 -4 60 -8 85 -8z m979 -197 c35 -34 44 -87 14 -73 -10 4 -44 10 -76 12 -54 4 -62 1 -88 -24 -16 -15 -29 -34 -29 -41 0 -7 -7 -13 -15 -13 -10 0 -15 10 -15 30 0 17 5 30 10 30 6 0 10 8 10 17 0 9 17 34 37 55 31 32 44 38 79 38 34 0 49 -6 73 -31z m-330 -48 c24 -21 61 -87 61 -109 0 -9 -6 -12 -17 -8 -44 17 -104 25 -144 18 -34 -6 -44 -12 -49 -31 -7 -29 -28 -39 -36 -17 -13 33 7 84 47 125 34 33 48 41 79 41 22 0 46 -8 59 -19z m-338 -31 c29 -16 69 -85 69 -120 0 -16 -2 -30 -4 -30 -2 0 -25 9 -51 20 -26 11 -61 20 -80 20 -48 0 -101 -25 -108 -51 -5 -19 -8 -20 -21 -9 -22 17 -20 44 6 90 41 71 133 110 189 80z"/> <path d="M1380 1552 c0 -11 7 -25 15 -32 8 -7 15 -21 15 -31 0 -23 18 -35 33 -20 10 10 8 20 -23 81 -11 23 -40 25 -40 2z"/> <path d="M1406 1224 c-9 -25 -7 -34 8 -34 8 0 16 -6 19 -12 3 -10 7 -10 17 -1 16 15 7 38 -18 52 -16 8 -21 7 -26 -5z"/> <path d="M1358 1169 c-22 -24 -22 -25 3 -50 l20 -20 25 25 25 25 -20 20 c-25 25 -31 25 -53 0z m33 -22 c-1 -12 -15 -9 -19 4 -3 6 1 10 8 8 6 -3 11 -8 11 -12z"/> <path d="M890 1151 c0 -10 7 -21 15 -25 8 -3 15 -11 15 -18 0 -7 17 -27 37 -46 36 -32 40 -33 116 -31 68 3 80 0 99 -19 18 -17 22 -32 20 -68 -1 -26 -4 -49 -7 -52 -11 -12 -30 20 -30 51 0 27 -4 32 -27 35 -16 2 -28 -2 -28 -8 0 -18 31 -74 46 -83 20 -12 17 -27 -6 -27 -10 0 -24 9 -30 20 -12 23 -60 28 -60 7 0 -8 11 -19 25 -25 14 -6 25 -16 25 -22 0 -24 49 -7 88 30 37 36 44 39 62 28 18 -11 23 -10 34 5 17 22 81 24 90 2 5 -15 51 -21 59 -7 3 4 2 21 0 39 -6 39 -32 50 -74 33 -25 -11 -32 -10 -48 4 -32 29 -67 10 -37 -20 20 -20 20 -34 1 -34 -19 0 -55 36 -55 55 0 28 24 65 42 65 10 0 18 5 18 10 0 15 -38 50 -54 50 -25 0 -28 -18 -5 -30 20 -11 20 -13 4 -28 -10 -10 -19 -13 -21 -7 -13 33 -24 36 -117 38 -95 2 -97 3 -132 37 -19 18 -35 40 -35 47 0 7 -7 13 -15 13 -8 0 -15 -9 -15 -19z"/> <path d="M1277 1123 c-10 -10 33 -53 53 -53 28 0 31 13 8 37 -21 23 -48 30 -61 16z"/> <path d="M1307 1034 c-14 -14 -7 -25 13 -22 12 2 21 8 21 13 0 12 -24 18 -34 9z"/> <path d="M986 893 c-3 -3 -6 -17 -6 -30 0 -13 -6 -23 -15 -23 -7 0 -18 -7 -23 -16 -6 -10 -20 -14 -43 -12 -26 2 -35 8 -37 26 -2 12 -7 22 -12 22 -14 0 -30 -35 -30 -63 0 -22 6 -26 45 -31 60 -9 115 2 115 23 0 9 5 23 10 31 9 13 12 13 21 -2 11 -19 64 -25 73 -9 3 5 -8 14 -24 20 -20 6 -30 17 -30 30 0 21 -32 46 -44 34z"/> <path d="M1318 868 c9 -9 15 -9 24 0 9 9 7 12 -12 12 -19 0 -21 -3 -12 -12z"/> <path d="M780 767 c0 -19 4 -25 15 -21 8 4 15 10 15 14 0 4 -7 13 -15 20 -13 11 -15 8 -15 -13z"/> <path d="M595 740 c-12 -19 10 -32 39 -24 29 7 25 18 -11 28 -12 4 -24 2 -28 -4z"/> <path d="M1640 665 c0 -8 7 -15 15 -15 8 0 15 7 15 15 0 8 -7 15 -15 15 -8 0 -15 -7 -15 -15z"/> <path d="M871 575 c-14 -30 -29 -55 -34 -55 -4 0 -6 -3 -4 -7 3 -5 38 -6 78 -5 63 3 71 6 56 17 -9 6 -17 22 -17 34 0 26 -28 71 -44 71 -6 0 -22 -25 -35 -55z"/> <path d="M470 1505 c0 -8 7 -15 15 -15 8 0 15 7 15 15 0 8 -7 15 -15 15 -8 0 -15 -7 -15 -15z"/> <path d="M2293 1493 c-23 -2 -47 -11 -53 -19 -7 -7 -18 -14 -24 -14 -17 0 -116 -89 -127 -114 -5 -12 -13 -28 -18 -36 -14 -25 -35 -112 -35 -150 0 -30 17 -112 31 -145 20 -51 123 -155 153 -155 10 0 23 -7 30 -15 10 -12 39 -15 144 -15 128 0 132 1 195 32 35 18 68 43 74 55 8 18 3 27 -33 62 -24 23 -46 41 -50 41 -3 0 -24 -16 -46 -35 -38 -34 -41 -35 -127 -35 -55 0 -94 5 -104 13 -47 38 -93 88 -93 104 0 10 -7 27 -15 37 -20 26 -19 100 0 116 8 7 15 23 15 35 0 16 18 39 52 69 l53 46 89 0 c87 0 90 -1 133 -36 l44 -36 43 39 c24 21 45 44 45 51 1 17 -59 72 -78 72 -8 0 -22 7 -31 15 -17 16 -184 27 -267 18z"/> <path d="M2784 1491 c-2 -2 -4 -152 -4 -333 l0 -328 247 2 248 3 -2 50 c-1 28 -2 54 -2 58 -1 5 -76 7 -168 6 l-168 -3 -1 268 c-1 147 -5 270 -8 274 -8 7 -135 10 -142 3z"/> <path d="M3382 1490 c-4 -3 -7 -152 -7 -332 l0 -328 258 0 257 0 0 61 0 60 -172 -1 c-95 -1 -181 -1 -190 -1 -16 1 -18 12 -18 75 0 51 4 76 13 79 6 2 78 2 158 -1 l147 -5 4 54 c3 30 1 58 -3 63 -5 5 -77 10 -161 10 l-153 1 -3 73 c-2 53 0 72 10 73 7 1 88 1 181 -1 l167 -2 0 61 c0 33 -3 61 -7 61 -94 4 -477 4 -481 0z"/> <path d="M4213 1470 c-13 -14 -23 -34 -23 -46 0 -12 -7 -27 -15 -34 -8 -7 -15 -23 -15 -35 0 -12 -7 -28 -15 -35 -8 -7 -15 -23 -15 -35 0 -12 -7 -28 -15 -35 -8 -7 -15 -23 -15 -36 0 -13 -4 -24 -10 -24 -5 0 -13 -12 -16 -27 -4 -16 -13 -37 -20 -48 -8 -11 -14 -27 -14 -36 0 -9 -7 -22 -15 -29 -8 -7 -15 -23 -15 -35 0 -12 -7 -28 -15 -35 -8 -7 -15 -23 -15 -36 0 -12 -4 -25 -9 -29 -11 -6 -41 -63 -41 -77 0 -5 37 -8 83 -6 79 3 82 4 85 28 2 14 9 39 17 55 7 17 16 38 19 48 5 15 22 17 166 17 148 0 160 -1 160 -18 0 -10 7 -27 15 -38 8 -10 15 -28 15 -40 0 -39 21 -52 98 -57 80 -5 100 7 68 42 -9 10 -16 25 -16 33 0 9 -7 21 -15 28 -8 7 -15 23 -15 35 0 12 -7 28 -15 35 -8 7 -15 20 -15 29 0 10 -7 26 -15 37 -8 10 -15 26 -15 35 0 9 -7 22 -15 29 -8 7 -15 23 -15 35 0 12 -7 28 -15 35 -8 7 -15 23 -15 35 0 12 -7 28 -15 35 -8 7 -15 23 -15 35 0 12 -7 28 -15 35 -8 7 -15 20 -15 30 0 10 -7 23 -15 30 -8 7 -15 22 -15 34 0 42 -20 54 -94 58 -64 3 -72 1 -93 -22z m111 -162 c9 -17 16 -39 16 -48 0 -9 7 -25 15 -36 8 -10 15 -27 15 -36 0 -9 6 -23 14 -30 19 -20 27 -51 17 -67 -6 -9 -36 -13 -107 -14 -94 -1 -99 0 -102 21 -2 12 4 32 12 44 9 12 16 30 16 39 0 9 7 22 15 29 8 7 15 23 15 36 0 12 4 25 9 28 4 3 11 19 14 36 8 39 31 38 51 -2z"/> <path d="M4763 1491 c-4 -3 -8 -153 -8 -333 l0 -328 72 0 c39 0 74 3 76 8 5 10 -20 348 -26 359 -3 5 -2 15 2 22 13 20 49 4 67 -30 8 -17 23 -38 32 -47 9 -9 39 -46 67 -82 46 -61 78 -99 116 -139 8 -9 25 -32 38 -53 21 -35 24 -36 84 -40 34 -2 65 -1 70 2 4 4 6 154 5 335 l-3 329 -70 0 -70 0 0 -199 c0 -182 -2 -200 -17 -203 -10 -2 -18 0 -18 5 0 5 -7 18 -15 28 -8 11 -32 43 -53 71 -50 70 -165 212 -217 270 -14 16 -35 23 -72 27 -28 2 -55 1 -60 -2z"/> <path d="M5812 1490 c-4 -3 -7 -152 -7 -333 l0 -327 78 0 79 0 -6 38 c-17 118 -18 142 -4 143 7 1 56 2 108 3 168 4 245 43 302 156 22 42 24 137 3 164 -8 11 -15 26 -15 34 0 18 -73 92 -92 92 -7 0 -23 6 -34 14 -16 11 -66 15 -213 18 -106 2 -196 1 -199 -2z m386 -155 c26 -28 32 -41 32 -78 0 -27 -6 -49 -15 -57 -8 -7 -15 -18 -15 -24 0 -6 -18 -19 -39 -29 -30 -14 -59 -17 -128 -15 l-88 3 0 115 c-1 63 4 118 9 121 5 4 54 5 110 2 99 -5 102 -6 134 -38z"/> <path d="M6504 1489 c-6 -10 -6 -650 0 -657 4 -3 37 -5 74 -5 l67 1 2 84 c1 45 2 88 2 94 1 8 25 11 73 10 70 -2 72 -3 104 -42 19 -21 34 -47 34 -57 0 -10 7 -20 15 -23 8 -4 15 -12 15 -19 0 -26 36 -42 108 -48 59 -5 74 -3 79 9 3 8 -2 23 -10 32 -48 51 -57 63 -57 72 0 6 -5 10 -10 10 -6 0 -15 11 -20 25 -5 14 -14 25 -19 25 -13 0 -23 34 -15 54 3 9 13 16 20 16 23 0 74 42 74 61 0 9 7 22 15 29 22 19 21 162 -2 203 -22 39 -83 97 -102 97 -8 0 -22 6 -30 14 -13 12 -59 15 -215 18 -109 2 -200 0 -202 -3z m389 -147 c23 -22 27 -33 27 -84 0 -61 -8 -75 -61 -110 -19 -12 -51 -17 -113 -19 -48 -1 -89 1 -93 5 -5 4 -7 179 -3 238 0 4 48 5 108 2 97 -6 110 -9 135 -32z"/> <path d="M7432 1490 l-233 -5 0 -325 0 -325 263 0 263 0 -1 55 0 55 -175 2 c-96 1 -182 2 -192 2 -16 1 -18 10 -15 79 l3 77 163 -4 163 -4 -3 63 -3 62 -160 2 -160 1 0 75 0 75 176 -4 176 -3 6 53 c5 53 -5 81 -27 77 -6 -1 -116 -5 -244 -8z"/> <path d="M7985 1494 c-82 -13 -159 -81 -170 -152 -13 -85 23 -182 67 -182 10 0 21 -7 24 -15 4 -9 19 -15 38 -15 17 0 40 -7 50 -15 11 -8 38 -15 61 -15 23 0 50 -7 61 -15 10 -8 27 -15 37 -15 21 0 56 -38 56 -60 0 -54 -93 -84 -205 -66 -39 6 -77 16 -85 21 -60 45 -99 43 -99 -5 0 -18 -6 -33 -15 -36 -8 -4 -15 -10 -15 -15 0 -18 41 -49 64 -49 13 0 29 -7 36 -15 18 -22 312 -22 330 0 7 8 19 15 27 15 35 0 103 109 103 165 0 49 -48 135 -76 135 -6 0 -17 7 -24 15 -7 8 -24 15 -39 15 -14 1 -37 7 -51 15 -14 8 -43 15 -65 15 -22 0 -49 7 -59 15 -11 8 -30 15 -42 15 -15 0 -26 10 -34 30 -17 42 3 86 45 95 67 16 185 5 215 -20 8 -6 20 -15 27 -19 16 -9 53 33 53 60 0 13 5 26 10 29 16 10 11 35 -7 35 -9 0 -24 7 -33 15 -12 11 -49 16 -136 19 -65 3 -132 2 -149 0z"/> <path d="M8588 1493 c-20 -2 -42 -11 -48 -19 -7 -8 -19 -14 -26 -14 -42 0 -94 -93 -94 -168 0 -45 5 -60 31 -93 17 -21 37 -39 44 -39 7 0 18 -7 25 -15 7 -8 25 -15 39 -15 15 0 36 -7 47 -15 10 -8 37 -15 59 -15 59 0 155 -53 155 -85 0 -28 -42 -64 -86 -73 -47 -10 -164 1 -194 19 -8 5 -25 13 -37 19 -13 5 -23 14 -23 20 0 5 -7 10 -15 10 -8 0 -15 -8 -15 -19 0 -10 -6 -24 -14 -30 -40 -33 -20 -101 29 -101 13 0 28 -7 35 -15 18 -22 322 -22 340 0 7 8 17 15 23 15 15 0 67 51 67 66 0 6 7 17 15 24 22 18 20 118 -2 150 -30 43 -47 60 -59 60 -6 0 -17 7 -24 15 -7 8 -24 15 -39 15 -15 0 -35 6 -46 14 -11 7 -40 16 -65 19 -111 12 -169 61 -135 113 24 37 80 57 135 50 82 -10 115 -19 125 -31 5 -7 20 -16 33 -20 16 -5 23 -2 28 12 3 10 12 31 20 46 23 45 18 62 -25 80 -40 18 -224 30 -303 20z"/> <path d="M305 1181 c-3 -5 4 -12 15 -16 11 -3 20 -13 20 -21 0 -8 4 -14 10 -14 5 0 18 -17 28 -37 15 -32 16 -42 5 -63 -7 -14 -13 -60 -13 -104 0 -72 2 -81 26 -102 14 -13 29 -24 35 -24 11 0 12 23 2 34 -17 17 -31 89 -22 113 5 13 9 37 9 52 0 15 5 32 12 39 9 9 9 15 0 24 -7 7 -12 22 -12 33 0 21 -35 59 -77 83 -27 14 -30 15 -38 3z"/> <path d="M65 1150 c-3 -6 5 -14 19 -20 14 -5 26 -14 26 -20 0 -5 8 -10 17 -10 9 0 40 -24 69 -53 42 -44 53 -62 58 -100 4 -26 11 -49 17 -52 5 -4 9 -60 9 -125 0 -92 3 -122 15 -134 8 -8 15 -21 15 -28 0 -20 79 -81 96 -74 13 5 9 13 -18 40 -62 64 -61 61 -65 195 -3 69 -9 130 -14 136 -5 5 -9 26 -9 46 0 21 -7 44 -15 53 -8 8 -15 17 -15 21 0 10 -78 85 -89 85 -5 0 -11 7 -15 15 -3 8 -17 15 -31 15 -14 0 -25 5 -25 10 0 13 -37 13 -45 0z"/> <path d="M2804 558 c-5 -7 -7 -71 -4 -143 l5 -130 108 -2 c102 -2 109 0 118 20 22 48 41 77 50 77 5 0 9 15 9 33 0 18 8 51 19 72 18 37 19 38 26 15 4 -13 14 -30 21 -38 8 -7 14 -27 14 -44 0 -17 11 -45 24 -62 13 -18 25 -40 27 -51 5 -24 42 -27 47 -4 2 9 -4 24 -13 32 -8 9 -15 21 -15 27 0 7 -6 24 -13 38 -8 15 -21 42 -30 60 -9 19 -17 39 -17 46 0 16 -42 66 -56 66 -14 0 -54 -56 -54 -75 0 -9 -7 -23 -15 -31 -8 -9 -15 -26 -15 -38 0 -13 -7 -29 -15 -36 -8 -7 -15 -21 -15 -32 0 -25 -19 -31 -99 -32 l-66 -1 0 120 c0 101 -2 120 -16 123 -9 1 -20 -3 -25 -10z"/> <path d="M3285 560 c-13 -21 6 -191 23 -219 29 -45 55 -60 100 -61 85 0 120 50 125 180 4 95 -1 117 -27 107 -13 -5 -16 -24 -16 -99 -1 -115 -14 -138 -82 -138 -60 0 -72 21 -78 140 -4 78 -8 95 -22 98 -9 2 -19 -2 -23 -8z"/> <path d="M3614 562 c-6 -4 -14 -62 -18 -139 l-7 -133 31 0 c29 0 30 1 29 48 0 26 -4 68 -8 93 -7 41 -6 46 10 42 10 -3 25 -15 32 -27 8 -11 24 -32 36 -45 11 -13 21 -27 21 -30 0 -3 13 -21 30 -39 16 -18 30 -38 32 -44 3 -7 11 -9 20 -5 14 5 16 25 15 144 -2 131 -3 138 -22 138 -19 0 -20 -7 -20 -91 0 -92 -8 -124 -22 -88 -4 10 -15 28 -25 38 -10 11 -30 38 -45 60 -16 23 -34 47 -40 54 -7 7 -13 18 -13 23 0 11 -21 12 -36 1z"/> <path d="M3915 546 c-3 -12 -2 -75 3 -141 l7 -120 85 -3 c64 -2 87 1 95 11 5 8 19 17 31 21 18 6 64 89 64 117 0 20 -40 95 -62 115 -20 19 -35 21 -121 21 -90 -1 -98 -2 -102 -21z m168 -22 c20 -4 37 -12 37 -19 0 -7 7 -18 15 -25 25 -21 19 -82 -12 -117 -22 -23 -40 -32 -79 -37 -83 -10 -84 -9 -84 105 l0 99 43 0 c23 0 59 -3 80 -6z"/> <path d="M4245 561 c-3 -2 -5 -64 -5 -138 0 -111 3 -135 15 -140 23 -8 30 4 30 50 0 41 1 42 35 44 31 2 39 -3 73 -47 20 -28 44 -50 52 -50 28 0 26 23 -6 56 l-33 34 32 39 c45 56 43 78 -16 151 -5 6 -171 8 -177 1z m153 -47 c28 -18 30 -64 3 -88 -14 -12 -32 -16 -67 -14 l-49 3 -3 39 c-2 22 -1 50 3 63 5 21 9 23 48 17 23 -4 52 -13 65 -20z"/> <path d="M4486 561 c-6 -8 46 -96 76 -130 7 -8 13 -41 13 -73 1 -58 14 -86 34 -74 6 4 11 24 11 45 0 40 21 91 45 111 8 7 15 21 15 31 0 11 5 19 10 19 6 0 14 8 17 18 4 9 13 22 20 27 8 7 9 15 4 24 -14 22 -59 -1 -67 -34 -3 -14 -10 -25 -15 -25 -5 0 -9 -8 -9 -18 0 -20 -18 -42 -35 -42 -6 0 -22 21 -35 47 -37 74 -68 101 -84 74z"/> <path d="M4889 549 c-23 -23 -25 -67 -4 -75 23 -9 18 -27 -15 -54 -65 -54 -22 -140 69 -140 22 0 46 7 55 15 17 17 52 20 61 5 8 -13 35 -13 35 1 0 6 -7 18 -16 26 -11 11 -14 26 -10 45 7 34 -20 52 -36 24 -9 -15 -12 -15 -34 6 -31 30 -30 39 5 77 28 30 29 33 15 60 -13 26 -20 29 -60 29 -32 0 -52 -6 -65 -19z m85 -25 c14 -5 14 -8 -1 -30 -26 -40 -72 -28 -58 16 6 20 29 25 59 14z m1 -145 c14 -17 24 -37 22 -43 -2 -6 -25 -11 -53 -11 l-49 0 -3 43 c-3 41 -2 42 27 42 21 0 37 -9 56 -31z"/> <path d="M5233 555 c-2 -6 -2 -69 -1 -141 l3 -129 81 -3 c63 -2 85 1 97 13 9 8 18 15 22 15 3 0 17 12 30 28 20 22 24 38 25 91 0 61 -2 66 -37 100 -37 36 -38 36 -126 36 -54 0 -91 -4 -94 -10z m192 -55 c15 -15 19 -33 19 -74 -1 -74 -22 -93 -105 -97 l-64 -4 -3 94 c-2 54 2 98 8 105 15 19 119 1 145 -24z"/> <path d="M5553 563 c-10 -4 -13 -40 -13 -139 l0 -134 24 0 c22 0 25 5 28 43 3 40 5 42 37 45 27 3 39 -2 57 -25 13 -15 23 -33 24 -39 0 -19 26 -35 44 -28 21 8 20 26 -4 52 -21 22 -27 62 -10 62 5 0 17 16 26 35 15 32 15 38 1 68 -27 56 -44 64 -127 64 -41 0 -81 -2 -87 -4z m128 -37 c15 -3 34 -17 43 -30 14 -23 14 -27 -2 -55 -15 -28 -22 -31 -67 -31 -66 0 -75 8 -73 59 1 45 24 72 56 65 9 -1 29 -5 43 -8z"/> <path d="M5807 563 c-4 -3 -7 -13 -7 -21 0 -15 67 -133 81 -142 4 -3 9 -30 11 -60 3 -47 6 -55 23 -55 17 0 20 8 23 59 2 46 10 70 33 103 16 24 29 48 29 52 0 5 7 14 15 21 8 7 15 21 15 31 0 25 -38 26 -47 2 -4 -10 -9 -20 -12 -23 -3 -3 -17 -26 -31 -52 -22 -43 -26 -46 -41 -32 -10 9 -20 26 -23 40 -4 13 -11 24 -16 24 -6 0 -10 8 -10 18 0 28 -28 51 -43 35z"/> <path d="M6196 531 c-37 -38 -38 -43 -38 -105 0 -55 3 -69 23 -91 13 -13 29 -25 35 -25 7 0 14 -7 18 -15 4 -11 21 -15 64 -15 50 0 62 4 80 25 12 14 22 30 22 35 0 13 -37 13 -45 0 -3 -5 -28 -10 -56 -10 -68 0 -93 25 -94 97 0 42 5 57 23 75 20 20 32 23 93 21 67 -2 70 -1 67 20 -3 20 -9 22 -79 24 l-75 3 -38 -39z"/> <path d="M6460 560 c-12 -7 -14 -32 -11 -132 1 -68 7 -129 13 -135 7 -8 36 -13 78 -13 77 0 100 6 100 26 0 18 -36 26 -91 22 l-44 -3 -1 111 c-1 131 -7 148 -44 124z"/> <path d="M6675 560 c-8 -12 0 -255 9 -268 11 -17 167 -16 191 2 18 13 18 14 -5 26 -15 8 -42 10 -78 6 -66 -8 -79 1 -74 49 l4 35 70 0 c61 0 69 2 66 18 -3 14 -14 17 -68 17 l-65 0 -3 43 -3 42 75 0 c75 0 97 9 73 28 -15 12 -184 14 -192 2z"/> <path d="M7010 545 c-5 -14 -10 -31 -10 -36 0 -5 -4 -9 -9 -9 -5 0 -13 -14 -16 -32 -4 -17 -14 -38 -21 -46 -8 -7 -14 -24 -14 -37 0 -12 -7 -25 -15 -29 -21 -8 -20 -65 1 -73 18 -7 34 12 34 43 0 12 7 24 15 28 8 3 15 18 15 33 0 15 7 37 15 47 8 11 15 27 15 37 0 9 8 20 17 23 18 7 33 -9 33 -36 0 -10 5 -18 10 -18 6 0 10 -16 10 -35 0 -22 6 -38 15 -41 8 -4 15 -14 15 -24 0 -21 31 -50 53 -50 18 0 23 15 8 25 -5 3 -12 19 -16 35 -4 17 -11 30 -16 30 -5 0 -9 8 -9 18 0 10 -7 27 -15 38 -8 10 -15 27 -15 36 0 9 -6 23 -14 31 -8 7 -16 25 -18 38 -5 37 -54 40 -68 4z"/> <path d="M7217 563 c-8 -16 -7 -259 2 -272 5 -8 16 -11 26 -7 16 6 17 17 12 106 -3 56 -2 100 3 100 8 0 29 -24 60 -70 20 -29 69 -88 98 -118 15 -16 27 -21 33 -15 6 6 11 70 12 144 2 128 1 134 -18 134 -18 0 -20 -7 -21 -90 0 -49 -2 -96 -2 -102 -2 -16 -28 9 -57 53 -21 33 -68 93 -97 125 -18 19 -44 25 -51 12z"/> <path d="M7545 558 c-3 -8 -4 -72 -3 -144 3 -121 4 -129 23 -129 19 0 20 7 20 140 0 125 -2 140 -18 143 -9 2 -19 -3 -22 -10z"/> <path d="M7667 563 c-11 -18 -7 -272 4 -278 25 -16 34 16 30 106 -2 62 0 89 8 89 7 0 15 -8 18 -17 6 -15 23 -37 68 -87 6 -6 23 -30 38 -54 44 -68 52 -53 55 102 2 116 0 137 -13 142 -26 10 -30 -4 -27 -97 2 -52 0 -89 -6 -89 -5 0 -27 26 -48 58 -22 31 -42 58 -46 60 -4 2 -17 19 -28 38 -20 32 -43 43 -53 27z"/> <path d="M7993 540 c-18 -17 -33 -40 -33 -50 0 -10 -4 -22 -10 -25 -5 -3 -10 -19 -10 -35 0 -16 5 -32 10 -35 6 -3 10 -15 10 -25 0 -10 20 -35 44 -54 36 -30 51 -36 91 -36 34 0 59 7 82 22 30 21 33 27 33 76 0 44 -3 52 -19 52 -23 0 -42 -21 -40 -46 5 -50 1 -54 -54 -54 -58 0 -68 7 -102 67 -18 31 -18 33 1 68 29 55 39 60 121 58 71 -2 74 -1 71 20 -3 20 -9 22 -83 25 -77 2 -81 1 -112 -28z"/> <path d="M2030 415 c-7 -8 -10 -22 -6 -30 5 -13 44 -15 308 -13 l303 3 0 25 0 25 -296 3 c-254 2 -298 0 -309 -13z"/> <path d="M8354 415 c-4 -8 -4 -22 0 -30 5 -13 48 -15 305 -15 267 0 300 2 305 16 16 41 -2 44 -311 44 -252 0 -294 -2 -299 -15z"/> </g> </svg>